<?xml version="1.0" standalone="no"?>
<!DOCTYPE svg PUBLIC "-//W3C//DTD SVG 20010904//EN"
 "http://www.w3.org/TR/2001/REC-SVG-20010904/DTD/svg10.dtd">
<svg version="1.0" xmlns="http://www.w3.org/2000/svg"
 width="40.000000pt" height="40.000000pt" viewBox="0 0 40.000000 40.000000"
 preserveAspectRatio="xMidYMid meet">

<g transform="translate(0.000000,40.000000) scale(0.100000,-0.100000)"
fill="#000000" stroke="none">
<path d="M0 200 l0 -200 200 0 200 0 0 200 0 200 -200 0 -200 0 0 -200z m250
135 c18 -9 30 -24 30 -35 0 -25 -11 -25 -33 0 -20 23 -69 27 -87 5 -22 -26 -7
-49 42 -65 86 -27 110 -70 66 -117 -17 -18 -32 -23 -69 -23 -40 0 -51 4 -69
28 -18 22 -19 28 -7 30 9 2 25 -6 36 -17 26 -26 52 -27 82 -2 32 27 17 50 -47
74 -63 24 -74 34 -74 67 0 56 70 86 130 55z"/>
</g>
</svg>
